<?xml version="1.0" standalone="no"?>
<!DOCTYPE svg PUBLIC "-//W3C//DTD SVG 20010904//EN"
 "http://www.w3.org/TR/2001/REC-SVG-20010904/DTD/svg10.dtd">
<svg version="1.0" xmlns="http://www.w3.org/2000/svg"
 width="750.000000pt" height="750.000000pt" viewBox="0 0 750.000000 750.000000"
 preserveAspectRatio="xMidYMid meet">
<metadata>
Created by potrace 1.14, written by Peter Selinger 2001-2017
</metadata>
<g transform="translate(0.000000,750.000000) scale(0.100000,-0.100000)"
fill="#000000" stroke="none">
<path d="M3199 7335 c-27 -12 -41 -28 -57 -64 -12 -26 -22 -52 -22 -58 0 -16
-88 -103 -104 -103 -8 0 -16 -6 -18 -12 -3 -9 -34 -14 -91 -16 -72 -3 -94 -1
-130 17 -39 19 -61 21 -219 21 -158 0 -178 -2 -199 -19 l-24 -19 0 -384 0
-383 23 -23 c21 -21 29 -22 203 -22 175 0 181 1 212 24 75 57 153 67 287 37
92 -20 197 -90 241 -160 28 -43 29 -50 29 -166 0 -120 0 -120 31 -159 l32 -38
-7 -316 c-4 -175 -11 -357 -16 -407 -5 -49 -10 -178 -10 -286 0 -220 -9 -379
-21 -379 -5 0 -29 12 -54 27 -42 26 -45 31 -45 70 0 34 -4 43 -17 43 -10 0
-94 5 -188 10 -93 6 -289 17 -435 25 -366 21 -736 46 -1336 89 -104 8 -202 12
-216 9 -15 -3 -37 -16 -50 -30 l-23 -25 -1 -886 c-1 -488 -2 -892 -3 -898 -1
-10 -141 -44 -178 -44 -10 0 -13 201 -13 970 0 935 1 972 19 1008 51 99 151
132 335 107 81 -10 1387 -98 1711 -115 110 -5 244 -13 298 -16 l97 -7 0 67 0
66 -61 0 -60 0 3 42 c3 37 9 46 45 73 41 29 42 32 40 80 l-2 50 -57 0 c-63 0
-84 -13 -124 -76 -16 -25 -24 -55 -26 -95 l-3 -59 -156 -3 -156 -2 -151 148
c-84 82 -152 152 -152 156 0 5 38 46 85 92 47 47 85 91 85 98 0 7 -10 33 -23
57 -13 24 -33 71 -46 104 -17 46 -37 74 -84 119 -34 33 -141 137 -238 233 -97
95 -184 173 -194 173 -10 0 -76 -57 -146 -127 -128 -126 -129 -127 -155 -112
-39 20 -153 16 -190 -7 -16 -10 -136 -125 -267 -256 -265 -266 -251 -239 -173
-322 25 -26 46 -50 46 -52 0 -2 40 -43 90 -92 49 -49 90 -91 90 -93 0 -2 -92
-4 -205 -4 -140 0 -208 -4 -213 -11 -4 -6 -16 -14 -27 -18 -24 -7 -95 -71 -95
-85 0 -5 -4 -11 -8 -13 -4 -1 -19 -21 -32 -43 l-25 -40 -3 -1057 c-2 -1003 -2
-1058 15 -1066 12 -7 52 -4 118 8 439 77 591 100 895 130 132 14 373 38 465
48 l70 7 -47 5 -48 5 23 29 c27 33 48 31 93 -11 l28 -26 151 6 c145 6 369 23
410 32 11 3 45 23 75 46 l54 42 33 -38 32 -37 508 7 c518 7 941 -2 1293 -29
96 -7 179 -11 183 -9 5 3 7 21 5 41 -1 19 2 37 7 39 6 2 33 -18 60 -43 l50
-46 165 -14 c149 -12 296 -26 580 -54 175 -17 206 -14 290 27 137 69 237 192
275 340 23 89 20 298 -5 374 -24 70 -56 123 -96 160 -30 27 -181 122 -274 172
-29 16 -50 30 -47 33 6 6 219 -47 301 -76 33 -11 64 -20 70 -20 8 0 10 84 8
285 l-3 285 27 10 c47 18 20 21 -92 11 -60 -6 -206 -18 -324 -27 -276 -20
-332 -27 -404 -53 -103 -36 -169 -93 -210 -181 -18 -39 -21 -63 -21 -195 0
-131 3 -156 21 -195 12 -25 29 -51 38 -59 13 -11 16 -34 15 -140 l0 -126 -40
145 c-53 195 -143 555 -165 659 -17 81 -17 84 1 97 10 8 17 15 14 17 -2 2
-131 1 -287 -1 l-283 -4 22 -24 23 -24 -37 -193 c-20 -105 -40 -211 -43 -234
-4 -24 -11 -43 -15 -43 -5 0 -8 129 -7 298 l3 297 220 6 c355 11 1228 58 1466
80 122 11 154 4 170 -38 6 -18 9 -238 7 -647 -4 -691 -1 -660 -75 -796 -56
-104 -131 -171 -242 -216 -48 -20 -52 -23 -31 -28 14 -2 138 -23 275 -46 138
-22 291 -48 340 -57 50 -9 103 -13 118 -9 l27 6 0 1016 c0 1011 0 1016 -22
1087 -18 59 -30 79 -77 126 -63 63 -91 81 -172 105 -46 15 -65 16 -114 7 -67
-13 -185 -15 -185 -3 0 4 16 25 36 47 150 168 214 245 214 256 0 5 -9 18 -20
29 -11 11 -20 22 -20 25 0 2 -15 19 -32 38 -34 35 -47 50 -113 132 -22 28 -43
52 -46 55 -4 3 -30 37 -60 75 -29 39 -58 75 -64 82 -5 6 -22 27 -38 46 -18 23
-39 37 -62 41 -19 4 -35 11 -35 16 0 6 -10 10 -22 10 -13 0 -36 7 -52 15 -15
8 -33 15 -38 15 -6 0 -24 6 -41 14 -18 8 -63 25 -102 37 -38 12 -74 26 -79 31
-6 4 -19 8 -30 8 -12 0 -34 7 -50 15 -15 8 -33 15 -40 15 -6 0 -23 6 -38 14
-36 19 -84 29 -106 22 -10 -3 -35 -30 -57 -59 -21 -28 -52 -64 -67 -79 -15
-15 -28 -32 -28 -37 0 -6 -4 -11 -8 -11 -4 0 -24 -21 -44 -47 -20 -27 -50 -62
-65 -78 -15 -17 -53 -62 -83 -100 -30 -39 -65 -80 -77 -92 -13 -12 -23 -27
-23 -33 0 -5 -4 -10 -8 -10 -5 0 -28 -27 -52 -60 -47 -64 -68 -77 -100 -60
-18 10 -20 20 -20 125 l0 115 49 0 c45 0 50 3 65 33 29 56 78 142 85 147 3 3
15 23 26 45 10 22 25 47 33 56 11 15 9 24 -17 67 -17 27 -31 54 -31 60 0 6 -3
12 -7 14 -13 5 -83 125 -83 140 0 33 -22 38 -188 38 -186 0 -170 6 -219 -90
-15 -30 -31 -56 -35 -58 -5 -2 -8 -8 -8 -13 0 -9 -36 -65 -50 -79 -24 -24 -31
-54 -19 -84 7 -17 16 -33 20 -36 8 -6 55 -90 100 -177 l31 -62 57 -3 56 -3 7
-133 c5 -101 10 -138 22 -151 9 -10 16 -22 16 -27 1 -15 74 -44 112 -44 31 0
44 -10 111 -80 43 -43 77 -81 77 -83 0 -3 36 -42 80 -87 44 -45 80 -89 80 -96
0 -11 -22 -14 -101 -14 l-101 0 -108 108 c-60 59 -146 143 -192 186 -184 175
-258 249 -258 259 0 6 -11 25 -26 44 -20 27 -32 33 -61 33 -50 0 -93 -41 -93
-87 0 -48 36 -93 73 -93 24 0 47 -17 119 -90 49 -49 91 -90 94 -90 7 0 104
-104 104 -112 0 -4 7 -8 15 -8 8 0 15 -4 15 -10 0 -12 68 -80 80 -80 6 0 10
-5 10 -10 0 -6 12 -22 27 -36 14 -13 24 -26 22 -29 -3 -2 -71 -7 -153 -11
-169 -8 -166 -10 -166 74 0 54 -25 107 -66 144 -28 24 -91 39 -120 27 -23 -8
-25 -14 -22 -61 3 -49 5 -53 43 -72 37 -20 40 -24 43 -69 l3 -47 -50 0 -51 0
0 -66 0 -66 123 6 c621 33 784 44 1642 112 176 13 356 27 401 31 134 10 220
-33 264 -132 17 -37 19 -102 21 -997 2 -526 0 -960 -3 -964 -4 -3 -48 4 -98
16 l-90 22 0 885 c0 971 3 927 -60 953 -22 9 -56 11 -113 6 -45 -3 -203 -15
-352 -26 -148 -11 -326 -24 -395 -30 -69 -6 -316 -21 -550 -35 -234 -14 -486
-30 -560 -35 -74 -5 -156 -9 -182 -10 l-48 0 0 -44 c0 -43 -8 -56 -50 -81 -10
-5 -27 -16 -39 -23 -20 -12 -21 -11 -21 38 0 29 -5 93 -10 143 -6 51 -15 229
-20 397 -5 168 -14 421 -20 563 l-11 257 29 25 30 25 4 195 c2 138 7 198 16
207 6 6 12 20 12 29 0 29 64 117 111 152 42 32 71 47 149 78 57 23 248 17 345
-10 44 -12 98 -27 120 -32 22 -6 44 -14 49 -20 6 -5 16 -9 24 -9 13 0 41 -11
117 -45 17 -7 48 -22 69 -31 22 -10 62 -18 90 -19 41 0 56 5 76 25 21 21 25
34 25 80 -1 46 -6 64 -33 103 -18 27 -32 51 -32 54 0 6 -99 155 -109 163 -3 3
-24 28 -46 55 -70 87 -235 245 -256 245 -5 0 -9 4 -9 8 0 11 -144 102 -205
130 -27 13 -58 27 -67 33 -10 5 -23 9 -29 9 -6 0 -25 6 -42 14 -36 16 -90 31
-192 53 -56 12 -178 16 -610 19 -471 3 -545 2 -576 -11z m1231 -163 c119 -33
254 -96 359 -167 101 -68 199 -150 191 -159 -3 -3 -26 0 -50 6 -25 5 -144 11
-265 11 -255 2 -310 -7 -460 -78 -116 -54 -242 -154 -242 -191 -1 -14 2 -21 6
-16 4 6 11 8 17 4 13 -8 44 -109 44 -141 0 -12 3 -21 6 -21 8 0 54 49 72 76 7
10 3 0 -8 -23 -37 -78 -50 -160 -50 -324 0 -154 0 -157 -22 -162 -31 -8 -501
-9 -520 -2 -13 5 -16 27 -17 113 -3 167 -28 286 -75 353 -37 54 -120 128 -174
157 -98 52 -150 62 -314 62 l-148 0 0 141 0 141 41 -7 c85 -14 177 -1 253 37
54 28 129 106 161 167 l26 52 547 -4 c520 -3 551 -5 622 -25z m-1742 -326 c5
-185 10 -176 -97 -176 -49 0 -96 3 -105 6 -14 5 -16 28 -16 153 0 81 2 150 4
152 2 2 51 2 108 -1 l103 -5 3 -129z m2204 -136 c102 -22 212 -55 236 -70 24
-15 -1 -11 -173 33 -77 19 -158 40 -180 45 l-40 10 35 1 c19 0 74 -8 122 -19z
m-2264 -176 l52 -7 0 -53 0 -54 -100 0 -100 0 0 60 0 60 48 0 c26 0 71 -3 100
-6z m404 -18 c54 -6 190 -60 210 -84 11 -14 11 -15 -7 -7 -72 30 -136 46 -222
56 -99 11 -198 5 -208 -12 -12 -18 -25 -8 -25 19 0 16 2 31 5 34 6 6 163 1
247 -6z m1858 -425 c0 -4 20 -38 44 -75 l44 -68 -34 -71 -35 -72 -89 1 c-49 0
-93 4 -97 8 -4 4 -3 15 3 24 8 12 22 16 52 13 35 -2 47 2 72 27 39 39 40 80 3
117 -70 70 -135 48 -167 -57 -4 -13 -16 -18 -45 -18 -22 0 -42 4 -46 10 -3 5
9 33 27 62 19 29 38 62 44 73 10 17 25 21 105 26 52 3 100 6 107 7 6 1 12 -2
12 -7z m842 -235 c321 -130 338 -138 357 -165 10 -14 34 -69 52 -121 29 -85
33 -107 33 -205 1 -136 -10 -163 -131 -325 -48 -63 -88 -117 -89 -119 -2 -1
-38 9 -81 23 -115 38 -149 40 -249 21 -56 -12 -89 -14 -91 -8 -9 25 -142 220
-164 239 -90 78 -229 162 -229 139 0 -3 23 -51 51 -106 27 -56 46 -99 41 -98
-16 6 -182 201 -182 213 1 10 126 166 275 342 28 32 85 101 128 151 43 51 83
93 87 93 5 0 91 -33 192 -74z m-3563 -145 c111 -107 200 -197 199 -200 -2 -3
-133 -133 -292 -288 l-289 -282 -41 36 c-23 20 -126 118 -229 217 -103 100
-192 182 -197 184 -5 2 -26 -16 -47 -39 -69 -76 -62 -73 -94 -43 -16 15 -29
33 -29 40 0 14 399 404 414 404 5 0 55 -45 112 -100 56 -55 109 -100 117 -100
7 0 26 13 41 29 33 34 31 47 -21 122 l-36 52 89 83 c49 46 92 82 95 81 4 -1
98 -89 208 -196z m1514 102 c5 -3 47 -6 93 -7 l85 -1 4 -230 c8 -406 15 -1051
15 -1360 l1 -300 -35 -80 c-20 -44 -38 -79 -42 -78 -16 4 -261 546 -289 638
-9 30 -10 98 -4 270 5 127 13 372 18 545 6 173 13 379 17 457 l6 142 32 3 c47
6 90 6 99 1z m2656 -382 c39 -47 71 -90 71 -97 0 -7 -22 -36 -48 -66 -26 -29
-58 -66 -70 -82 -32 -42 -27 -10 13 72 l34 72 -38 72 c-43 81 -58 122 -43 117
5 -2 42 -42 81 -88z m-4909 -339 c97 -91 114 -112 87 -112 -18 0 -207 179
-207 197 0 23 13 14 120 -85z m1020 -163 c0 -7 -125 -1 -210 10 l-55 7 63 64
64 63 69 -69 c38 -38 69 -71 69 -75z m-550 -448 c311 -16 671 -35 800 -41 129
-6 239 -15 243 -19 4 -4 7 -47 5 -95 l-3 -86 -28 25 c-77 72 -184 94 -467 95
-234 0 -380 -36 -468 -115 -83 -75 -82 -70 -82 -424 0 -241 -3 -313 -12 -316
-7 -2 -43 -5 -80 -7 l-68 -4 0 356 0 356 26 52 c14 29 44 67 66 86 21 19 35
36 30 40 -5 3 -184 10 -398 16 -214 6 -393 15 -398 20 -13 13 3 78 22 90 20
13 48 12 812 -29z m1357 -101 c84 -42 120 -87 182 -232 74 -170 203 -421 286
-555 38 -62 72 -113 76 -113 12 0 119 160 177 265 67 123 90 172 187 397 91
213 139 259 284 274 l61 7 0 -611 0 -611 34 -6 c77 -15 77 -15 132 285 19 107
50 272 69 365 63 313 78 400 77 428 l-1 27 160 0 c134 0 160 -2 156 -14 -3 -8
1 -36 9 -63 8 -26 44 -160 79 -298 99 -388 121 -469 169 -627 58 -191 56 -188
112 -188 l45 0 -1 193 c0 105 -1 196 0 200 0 5 16 -10 35 -33 52 -62 101 -98
183 -137 82 -38 163 -53 187 -33 16 13 21 110 9 183 -6 36 -12 41 -153 124
-151 89 -247 154 -268 181 -10 12 -13 72 -13 223 l0 207 30 30 c16 17 51 37
77 46 55 19 268 41 493 52 l156 6 -4 -168 c-1 -93 -4 -177 -5 -187 -2 -13 -13
-7 -52 29 -27 26 -63 53 -80 59 -16 7 -87 16 -156 20 -159 9 -161 7 -157 -104
l3 -76 62 -40 c35 -22 117 -71 184 -110 66 -38 137 -87 156 -108 l35 -39 -4
-181 c-3 -173 -4 -185 -30 -239 -54 -115 -164 -199 -282 -213 -28 -3 -109 1
-181 9 -71 9 -238 27 -370 41 -132 13 -257 28 -278 31 l-39 6 31 32 31 32 -18
54 -17 55 -145 0 -144 0 -15 -38 -14 -38 42 -43 c23 -23 39 -44 37 -47 -2 -2
-58 -1 -123 2 -65 4 -225 10 -355 14 -131 5 -238 11 -238 15 0 3 12 17 26 31
51 47 56 71 62 261 3 98 2 178 -3 178 -4 0 -35 -30 -69 -67 -192 -211 -360
-383 -373 -383 -13 0 -243 236 -347 355 -43 50 -83 92 -89 94 -7 3 -8 -34 -4
-119 4 -68 7 -153 7 -190 0 -62 2 -69 36 -109 20 -23 33 -45 29 -49 -3 -4 -91
-9 -193 -11 -182 -3 -187 -3 -171 15 9 11 25 35 35 54 18 33 19 69 22 514 3
409 1 488 -12 550 -9 39 -23 85 -32 101 -9 17 -20 41 -25 54 l-10 24 73 -6
c51 -4 90 -15 135 -37z m-1603 -56 c13 -5 11 -12 -12 -47 l-27 -41 -3 -453 -3
-453 58 5 c200 20 237 27 264 45 15 11 29 20 31 20 9 0 2 -370 -7 -370 -5 0
-89 -9 -185 -20 -96 -10 -222 -24 -280 -30 -58 -6 -127 -15 -155 -21 -27 -6
-60 -12 -72 -15 -29 -6 -29 9 0 49 13 18 32 52 42 77 17 42 19 82 17 582 -1
587 0 571 -62 641 l-32 37 205 0 c113 0 212 -3 221 -6z m1138 -38 c66 -25 142
-95 165 -154 16 -43 18 -83 18 -432 0 -380 0 -386 -23 -427 -35 -66 -76 -107
-139 -138 -89 -43 -139 -56 -253 -62 -235 -12 -419 66 -483 205 -21 46 -22 58
-22 447 l0 401 26 49 c32 63 86 101 169 120 96 21 476 15 542 -9z m-1665 -54
l28 -47 3 -505 c4 -612 -3 -679 -77 -770 l-21 -25 0 708 c0 701 0 708 20 697
11 -6 32 -32 47 -58z"/>
<path d="M4013 6300 c0 -25 2 -35 4 -22 2 12 2 32 0 45 -2 12 -4 2 -4 -23z"/>
<path d="M5645 5728 c-85 -30 -178 -136 -205 -232 -30 -108 9 -262 86 -341
150 -154 426 -132 543 43 35 54 36 57 36 151 0 88 -3 102 -32 161 -17 36 -49
81 -70 100 -21 19 -28 24 -17 10 61 -71 82 -199 49 -287 -39 -103 -164 -181
-272 -170 -219 22 -309 289 -151 447 67 68 193 97 282 67 25 -9 46 -14 46 -11
0 3 -32 20 -72 39 -59 29 -84 35 -133 34 -33 0 -73 -5 -90 -11z"/>
<path d="M5710 5625 c-142 -64 -165 -269 -39 -352 37 -24 52 -28 115 -28 64 0
77 3 116 30 121 86 122 262 1 336 -46 28 -145 35 -193 14z m143 -158 c22 -18
27 -31 27 -69 0 -39 -4 -48 -27 -64 -59 -39 -129 -19 -163 45 -13 25 -4 54 29
94 22 26 101 23 134 -6z"/>
<path d="M3682 5630 c0 -19 2 -27 5 -17 2 9 2 25 0 35 -3 9 -5 1 -5 -18z"/>
<path d="M4916 3823 c-9 -43 -28 -134 -41 -203 -13 -69 -27 -133 -30 -142 -7
-17 2 -18 108 -18 l115 0 -22 73 c-12 39 -40 138 -62 219 -21 82 -42 148 -45
148 -3 0 -14 -35 -23 -77z"/>
<path d="M2376 4039 l-26 -20 0 -309 0 -309 27 -21 c25 -20 37 -21 146 -18
167 4 157 -16 158 302 3 370 4 347 -26 374 -24 20 -36 22 -139 22 -99 0 -117
-3 -140 -21z m154 -338 c0 -99 -4 -182 -8 -185 -5 -3 -26 -3 -46 1 l-38 6 4
166 c2 91 7 172 11 179 5 6 24 12 43 12 l34 0 0 -179z"/>
<path d="M2642 6030 c-9 -16 -20 -30 -24 -30 -5 0 -8 -5 -8 -10 0 -11 -34 -63
-59 -89 -8 -9 -27 -37 -43 -63 -16 -26 -33 -48 -38 -48 -4 0 -10 -10 -14 -22
-4 -16 5 -40 29 -80 19 -31 35 -61 35 -67 0 -6 4 -11 9 -11 5 0 12 -13 16 -30
4 -16 10 -30 15 -30 5 0 11 -13 15 -30 4 -16 10 -30 15 -30 4 0 13 -12 19 -27
6 -16 19 -41 29 -58 l19 -30 161 1 c88 1 171 4 184 7 14 4 34 26 53 59 17 29
42 73 57 98 15 25 33 56 38 70 6 13 14 27 18 30 4 3 14 19 23 35 8 17 22 40
29 52 13 19 10 26 -28 77 -23 30 -42 59 -42 65 0 5 -4 11 -9 13 -12 4 -81 96
-81 108 0 6 -3 10 -7 10 -5 0 -16 14 -25 30 l-17 30 -176 0 -176 0 -17 -30z
m381 -190 c37 -55 67 -102 67 -105 0 -3 -19 -5 -43 -5 -41 0 -44 2 -86 65
l-44 65 -83 0 -82 0 -33 -65 c-30 -57 -37 -65 -64 -66 -29 0 -29 -1 -7 -11 12
-6 36 -34 53 -61 31 -50 53 -77 63 -77 3 0 3 6 0 14 -6 16 7 22 70 31 34 5 53
15 71 37 14 16 25 36 25 44 0 8 7 14 15 14 22 0 19 -24 -11 -86 l-25 -54 -57
-1 c-45 -1 -51 -3 -27 -8 17 -4 45 -4 63 0 23 5 32 3 32 -6 0 -7 3 -20 6 -29
5 -14 -8 -16 -105 -16 l-111 0 -21 43 c-29 57 -91 161 -101 167 -4 3 23 52 60
108 l67 102 121 0 121 0 66 -100z"/>
<path d="M2719 5211 c-20 -16 -24 -29 -24 -74 0 -46 4 -58 25 -76 16 -13 40
-20 66 -21 57 0 94 41 94 104 0 36 -5 48 -26 65 -35 27 -103 28 -135 2z"/>
<path d="M3743 2823 c-17 -6 -17 -43 0 -43 7 0 18 5 25 12 9 9 12 9 12 0 0 -7
10 -12 23 -11 21 0 21 1 2 8 -14 6 -3 8 34 8 29 -1 47 -3 40 -6 -10 -5 -14
-29 -14 -95 0 -61 -4 -91 -12 -93 -9 -3 -13 21 -16 89 l-3 93 -2 -100 -2 -100
25 0 c25 0 25 0 25 98 l0 97 49 0 c42 0 48 3 47 20 -1 18 -10 20 -111 24 -60
2 -116 2 -122 -1z"/>
<path d="M3212 2757 c-40 -61 -61 -109 -25 -57 42 60 79 100 93 100 6 0 10
-40 10 -100 0 -82 -3 -100 -15 -100 -10 0 -15 11 -16 33 l-2 32 -6 -35 c-9
-44 -6 -50 25 -50 l24 0 0 120 c0 119 0 120 -23 120 -17 0 -34 -16 -65 -63z"/>
<path d="M3440 2718 l5 -103 3 88 c2 79 5 87 22 87 11 0 20 5 20 11 0 6 6 4
14 -4 9 -9 38 -15 75 -16 55 -1 61 1 61 19 0 19 -7 20 -102 20 l-103 0 5 -102z"/>
<path d="M4110 2804 c0 -14 3 -14 15 -4 11 9 18 10 28 1 14 -11 27 -5 27 13 0
6 -5 4 -10 -4 -6 -10 -10 -11 -10 -2 0 6 -11 12 -25 12 -16 0 -25 -6 -25 -16z"/>
<path d="M4380 2700 l0 -120 95 0 c87 0 95 2 95 19 0 10 -7 21 -15 25 -8 3
-15 1 -15 -4 0 -6 5 -10 10 -10 6 0 10 -4 10 -10 0 -6 -35 -10 -85 -10 l-85 0
0 104 c0 58 4 107 8 110 18 11 27 -13 28 -80 1 -99 4 -104 61 -102 l48 2 -47
3 -48 4 0 95 0 94 -30 0 -30 0 0 -120z"/>
<path d="M3001 2758 c1 -55 5 -50 11 15 2 20 0 37 -4 37 -4 0 -7 -24 -7 -52z"/>
<path d="M3055 2784 c24 -25 29 -38 26 -57 -1 -5 3 -6 9 -2 5 3 10 1 10 -4 0
-6 5 -11 10 -11 14 0 -52 99 -67 99 -7 1 -1 -11 12 -25z"/>
<path d="M4057 2679 c-21 -44 -37 -85 -37 -90 0 -5 14 -9 30 -9 19 0 30 5 30
14 0 9 -7 13 -20 11 -26 -5 -25 3 10 82 17 36 29 68 27 70 -2 2 -20 -33 -40
-78z"/>
<path d="M4211 2720 c14 -31 19 -36 19 -24 0 6 -7 19 -16 30 -14 18 -14 18 -3
-6z"/>
<path d="M4789 2713 c-5 -14 -7 -34 -3 -42 5 -11 9 -6 13 19 6 33 9 35 51 41
l45 6 -48 1 c-43 2 -48 -1 -58 -25z"/>
<path d="M2467 2723 c18 -2 50 -2 70 0 21 2 7 4 -32 4 -38 0 -55 -2 -38 -4z"/>
<path d="M3540 2719 c-34 -6 -24 -13 15 -10 15 2 17 0 6 -7 -10 -7 -10 -11 -1
-17 15 -9 22 -1 18 22 -2 15 -9 17 -38 12z"/>
<path d="M4961 2726 c2 -2 67 -6 144 -8 86 -3 117 -2 80 2 -62 8 -232 13 -224
6z"/>
<path d="M2198 2703 c7 -3 16 -2 19 1 4 3 -2 6 -13 5 -11 0 -14 -3 -6 -6z"/>
<path d="M5363 2703 c9 -2 23 -2 30 0 6 3 -1 5 -18 5 -16 0 -22 -2 -12 -5z"/>
<path d="M2028 2693 c12 -2 32 -2 45 0 12 2 2 4 -23 4 -25 0 -35 -2 -22 -4z"/>
<path d="M5453 2693 c15 -2 37 -2 50 0 12 2 0 4 -28 4 -27 0 -38 -2 -22 -4z"/>
<path d="M1913 2683 c15 -2 39 -2 55 0 15 2 2 4 -28 4 -30 0 -43 -2 -27 -4z"/>
<path d="M5593 2683 c15 -2 37 -2 50 0 12 2 0 4 -28 4 -27 0 -38 -2 -22 -4z"/>
<path d="M1770 2672 c0 -4 17 -6 38 -4 64 6 69 10 15 11 -29 0 -53 -3 -53 -7z"/>
<path d="M3186 2645 c-15 -19 -23 -35 -19 -35 4 0 18 16 31 35 29 45 22 45
-12 0z"/>
<path d="M4143 2673 c-18 -2 -33 -8 -33 -14 0 -15 46 -10 60 6 7 8 11 14 9 13
-2 0 -19 -3 -36 -5z"/>
<path d="M5715 2675 c6 -2 22 -6 38 -9 22 -5 27 -12 27 -35 0 -16 -5 -32 -10
-34 -6 -3 -5 -4 2 -3 18 4 23 67 6 77 -7 5 -26 8 -43 8 -16 0 -25 -2 -20 -4z"/>
<path d="M3090 2665 c1 -14 57 -81 64 -75 2 3 -11 23 -30 45 -19 22 -34 35
-34 30z"/>
<path d="M1746 2645 c-3 -9 -6 -24 -5 -33 0 -9 5 -4 10 12 9 32 6 48 -5 21z"/>
<path d="M3001 2644 c0 -11 3 -14 6 -6 3 7 2 16 -1 19 -3 4 -6 -2 -5 -13z"/>
<path d="M986 2618 c-45 -40 -36 -117 14 -138 35 -15 67 -8 103 21 39 30 37
79 -4 113 -38 32 -80 33 -113 4z"/>
<path d="M3540 2630 c-30 -10 -20 -12 43 -10 26 1 47 -3 47 -9 0 -6 -37 -10
-95 -9 -52 0 -95 -4 -95 -8 0 -5 46 -9 102 -9 l101 0 1 28 c2 25 -1 27 -39 26
-22 -1 -51 -5 -65 -9z"/>
<path d="M4108 2633 c7 -3 16 -2 19 1 4 3 -2 6 -13 5 -11 0 -14 -3 -6 -6z"/>
<path d="M4148 2633 c7 -3 16 -2 19 1 4 3 -2 6 -13 5 -11 0 -14 -3 -6 -6z"/>
<path d="M4255 2618 c7 -34 -8 -36 -29 -6 -9 12 -16 18 -16 12 0 -21 27 -46
46 -42 19 3 20 5 7 33 -14 30 -14 30 -8 3z"/>
<path d="M6441 2614 c-30 -38 -27 -80 8 -115 38 -38 82 -39 118 -3 22 22 25
32 20 67 -7 52 -36 77 -87 77 -30 0 -43 -6 -59 -26z"/>
<path d="M1268 2613 c7 -3 16 -2 19 1 4 3 -2 6 -13 5 -11 0 -14 -3 -6 -6z"/>
<path d="M2103 2613 c9 -2 25 -2 35 0 9 3 1 5 -18 5 -19 0 -27 -2 -17 -5z"/>
<path d="M6222 2608 c-14 -14 -16 -44 -3 -52 4 -3 6 6 3 19 -4 25 4 30 73 38
21 3 16 4 -15 6 -26 0 -51 -4 -58 -11z"/>
<path d="M3001 2594 c0 -11 3 -14 6 -6 3 7 2 16 -1 19 -3 4 -6 -2 -5 -13z"/>
<path d="M1318 2567 c-3 -19 -2 -25 4 -19 6 6 8 18 6 28 -3 14 -5 12 -10 -9z"/>
<path d="M687 2555 c-22 -21 -27 -35 -27 -70 0 -51 16 -65 82 -68 50 -2 78 27
78 82 0 74 -78 107 -133 56z"/>
<path d="M6736 2549 c-31 -37 -32 -54 -7 -96 23 -37 50 -47 97 -39 42 8 58 36
51 88 -10 77 -93 105 -141 47z"/>
<path d="M1517 2516 c-50 -18 -60 -28 -113 -107 -25 -38 -49 -69 -52 -69 -8 0
-458 -66 -519 -76 l-43 -7 0 42 c0 38 -2 41 -19 31 -11 -5 -28 -24 -38 -40
-10 -17 -28 -33 -41 -37 -30 -7 -52 -56 -43 -92 6 -23 13 -26 56 -29 26 -2 60
2 74 7 14 6 53 15 86 20 112 17 240 40 280 50 52 14 75 14 75 0 0 -5 -51 -61
-112 -122 -136 -135 -151 -161 -145 -248 6 -84 19 -132 58 -204 107 -200 261
-320 410 -319 62 1 74 5 121 37 29 20 120 101 202 181 82 81 155 146 162 146
6 0 17 -21 24 -47 7 -27 19 -55 27 -64 7 -8 13 -20 13 -25 0 -14 50 -66 80
-85 42 -26 158 -52 198 -45 20 3 53 9 72 12 84 13 80 10 73 59 l-6 45 61 0
c68 0 73 6 65 68 l-5 41 63 3 64 3 -3 52 -3 52 61 7 c59 6 61 8 56 30 -20 81
-23 74 30 74 66 0 79 11 79 62 0 45 1 45 100 90 25 12 30 19 28 48 -1 36 18
59 50 60 14 0 17 -9 17 -52 0 -63 -6 -74 -45 -84 -67 -16 -101 -50 -110 -111
-3 -24 -10 -43 -16 -43 -5 0 -9 -10 -9 -23 0 -12 -9 -48 -20 -80 -11 -31 -20
-63 -20 -72 0 -8 21 -28 46 -43 l45 -29 -38 -29 c-20 -15 -45 -35 -54 -44 -9
-8 -45 -40 -80 -70 -35 -30 -115 -108 -178 -173 -63 -64 -117 -114 -120 -110
-3 5 -32 26 -63 47 -32 22 -58 43 -58 48 0 4 -5 8 -12 8 -6 0 -20 7 -29 16
-17 15 -21 15 -53 0 -19 -9 -45 -16 -59 -16 -14 0 -28 -4 -31 -9 -4 -5 -23
-12 -44 -16 -39 -7 -129 -36 -149 -48 -6 -4 -15 -22 -18 -40 -4 -17 -10 -36
-14 -42 -7 -12 -27 -79 -45 -155 -8 -30 -17 -62 -20 -71 -5 -11 11 -35 51 -79
117 -127 205 -210 221 -210 17 0 29 3 147 35 33 9 84 22 114 29 47 10 56 15
63 41 5 17 13 39 17 50 8 19 19 59 42 150 6 22 14 44 20 49 5 6 9 16 9 24 0
16 70 135 82 140 4 2 8 9 8 16 0 14 133 152 185 192 40 30 55 24 55 -26 0 -15
4 -30 9 -35 6 -6 14 -32 18 -60 7 -43 13 -51 43 -66 19 -10 52 -21 74 -24 l39
-6 -7 -47 c-3 -25 -11 -51 -16 -56 -17 -17 -11 -31 18 -48 29 -18 47 -32 132
-107 30 -27 74 -65 97 -86 l43 -37 34 16 c19 9 43 16 53 16 10 0 24 5 29 10 8
8 14 7 22 -2 12 -14 7 -29 -49 -143 -28 -58 -29 -65 -29 -203 0 -79 4 -151 10
-161 5 -10 76 -51 157 -91 81 -41 155 -79 163 -86 35 -29 63 -26 150 19 210
109 266 140 273 150 12 20 4 347 -10 355 -6 4 -15 20 -18 35 -4 15 -11 27 -16
27 -5 0 -9 6 -9 13 0 6 -7 25 -15 41 -10 18 -12 33 -6 39 10 10 118 -9 126
-24 10 -15 19 -11 71 39 71 67 145 126 160 130 8 2 14 7 14 12 0 5 16 18 36
31 32 20 35 25 29 55 -3 18 -12 46 -20 61 -13 25 -13 29 2 41 9 6 26 12 38 12
12 0 25 4 31 9 5 5 20 11 33 13 21 2 26 12 37 58 31 135 36 150 52 150 19 0
212 -196 212 -216 0 -8 5 -14 10 -14 6 0 15 -10 20 -22 6 -13 19 -36 29 -53
11 -16 29 -61 41 -100 12 -38 26 -78 31 -88 6 -10 14 -37 19 -60 5 -23 15 -60
23 -82 14 -36 20 -41 59 -48 44 -8 98 -22 200 -52 31 -9 67 -14 78 -10 11 4
58 44 103 89 134 135 169 177 161 195 -3 9 -18 61 -33 116 -15 55 -29 105 -33
110 -3 6 -9 26 -13 46 -6 34 -11 38 -68 57 -34 11 -79 23 -100 27 -20 4 -40
11 -43 16 -3 5 -14 9 -26 9 -11 0 -36 7 -55 17 -43 20 -62 12 -158 -72 -22
-19 -46 -35 -52 -35 -7 0 -13 -5 -13 -12 0 -6 -12 3 -27 21 -54 66 -251 258
-319 311 -38 30 -70 58 -72 62 -2 5 -10 8 -18 8 -24 0 -15 24 16 45 16 11 30
23 30 28 0 4 7 7 15 7 17 0 21 45 6 55 -5 3 -12 19 -16 36 -4 17 -13 42 -21
57 -8 15 -14 32 -14 38 0 7 -7 25 -15 40 -8 16 -15 41 -15 57 0 15 -5 27 -11
27 -6 0 -25 6 -42 14 -18 7 -45 18 -60 25 -27 10 -28 14 -25 68 2 46 7 59 20
61 26 5 46 -20 50 -63 3 -33 8 -40 33 -48 17 -6 32 -13 35 -16 3 -4 17 -12 32
-18 22 -10 27 -19 30 -55 l3 -43 58 -9 c31 -4 57 -12 57 -17 0 -6 -7 -26 -15
-46 -8 -19 -15 -37 -15 -39 0 -2 25 -4 56 -4 60 0 89 -16 73 -41 -5 -8 -9 -29
-9 -46 l0 -33 64 0 c50 0 65 -4 70 -17 4 -9 2 -21 -4 -27 -5 -5 -10 -23 -10
-38 l0 -28 70 0 c74 0 84 -8 58 -49 -20 -32 -4 -48 54 -55 128 -15 170 -17
181 -8 7 5 31 13 54 17 23 3 47 13 54 21 6 8 17 14 23 14 25 1 97 120 111 183
3 15 9 27 13 27 10 -1 68 -53 217 -198 72 -70 147 -136 168 -146 27 -14 57
-19 110 -19 62 1 81 6 134 35 68 36 163 123 209 190 16 24 31 45 34 48 10 10
39 77 54 128 9 29 17 88 17 131 1 98 -11 118 -145 251 -53 52 -96 100 -96 107
0 11 40 10 95 -3 11 -3 58 -11 105 -19 47 -8 119 -22 160 -30 129 -28 172 -30
187 -9 28 38 10 94 -35 108 -12 4 -25 18 -28 32 -6 23 -38 54 -56 54 -5 0 -8
-19 -8 -41 l0 -42 -37 7 c-40 7 -308 46 -457 66 -83 12 -89 14 -105 43 -9 16
-34 53 -57 81 -81 102 -173 96 -249 -16 -9 -13 -35 -13 -215 3 -439 38 -572
42 -1765 45 -1162 2 -1412 -2 -1810 -32 -410 -31 -361 -30 -369 -1 -13 55
-101 88 -169 63z m93 -165 c0 -21 -7 -55 -16 -76 -33 -79 1 -79 86 1 l46 43
147 12 c81 6 150 9 152 7 5 -5 -137 -148 -459 -461 l-179 -175 21 -29 c12 -17
26 -43 32 -58 l10 -27 60 53 c32 30 200 190 372 357 333 322 381 363 401 343
9 -9 -42 -65 -228 -249 -348 -343 -565 -552 -576 -552 -5 0 -9 -11 -9 -24 0
-36 -12 -86 -20 -86 -4 0 -11 29 -14 63 -15 140 -135 311 -272 388 -30 17 -54
33 -54 35 0 11 476 474 488 474 7 0 12 -14 12 -39z m4528 -143 c102 -101 209
-207 239 -237 l53 -55 -53 -28 c-136 -74 -277 -283 -277 -409 0 -15 -3 -35 -6
-44 -10 -26 -24 3 -24 52 0 41 0 42 -407 439 -225 219 -409 401 -411 406 -8
19 38 6 74 -21 21 -16 201 -184 399 -373 l360 -345 34 61 33 60 -33 30 c-19
16 -126 118 -239 226 -113 108 -244 232 -291 275 -48 44 -87 84 -88 89 -1 8
81 4 237 -11 59 -5 68 -9 125 -59 46 -40 64 -51 74 -42 17 14 16 32 -3 70 -17
33 -12 98 8 98 5 0 94 -82 196 -182z m-1481 141 c-6 -10 -18 -19 -25 -19 -8 0
-27 -10 -44 -21 -22 -16 -32 -19 -41 -10 -8 8 -6 11 8 11 10 0 15 3 12 7 -4 4
4 19 18 33 19 20 33 25 55 22 26 -4 27 -6 17 -23z m171 22 c-3 -10 -118 -101
-127 -101 -3 0 -13 5 -21 10 -12 8 -9 15 20 46 19 20 44 40 55 44 27 12 77 12
73 1z m-2104 -61 c35 -33 67 -60 73 -60 14 0 101 -49 108 -61 10 -16 -8 -10
-50 16 -51 31 -53 31 -68 -4 l-12 -29 -70 65 c-39 35 -85 76 -102 90 -18 14
-33 29 -33 34 0 5 21 9 46 9 42 0 50 -4 108 -60z m101 34 c19 -17 26 -28 18
-31 -9 -3 -5 -15 13 -39 15 -19 22 -34 16 -34 -10 0 -152 117 -152 126 0 2 17
4 38 4 25 -1 47 -9 67 -26z m135 6 c6 -11 7 -20 3 -19 -27 5 -35 -1 -23 -16
28 -33 -28 -6 -74 37 -19 17 -18 18 32 18 41 0 53 -4 62 -20z m1480 10 c0 -5
-5 -10 -11 -10 -5 0 -7 5 -4 10 3 6 8 10 11 10 2 0 4 -4 4 -10z m540 2 c0 -4
-45 -50 -101 -101 -94 -88 -101 -92 -114 -75 -8 11 -15 22 -15 27 0 4 34 41
75 82 68 69 78 75 115 75 22 0 40 -4 40 -8z m-1132 -14 c5 -7 16 -39 23 -71 7
-32 17 -63 23 -70 6 -7 43 -23 82 -37 l71 -23 61 46 c33 26 63 47 66 47 3 0
34 -20 69 -45 l65 -45 -31 -74 -30 -74 35 -43 c20 -24 43 -58 52 -76 16 -31
17 -32 69 -26 101 13 98 14 124 -52 20 -51 21 -61 9 -70 -8 -5 -42 -27 -76
-48 -44 -27 -60 -43 -56 -53 3 -9 6 -47 6 -84 l0 -69 65 -36 c36 -20 67 -40
69 -44 3 -4 -3 -33 -12 -64 l-17 -57 -85 0 -85 -1 -53 -82 -52 -81 31 -59 31
-59 -22 -23 c-13 -13 -40 -36 -62 -51 l-38 -27 -23 20 c-12 11 -37 30 -54 42
l-33 22 -83 -28 c-102 -36 -103 -37 -111 -70 -4 -16 -12 -45 -17 -66 l-10 -38
-77 3 -76 3 -19 67 c-18 61 -22 67 -51 72 -17 3 -58 19 -92 35 l-60 28 -58
-43 -58 -44 -59 46 c-32 25 -59 47 -59 50 0 11 40 83 50 89 17 11 11 36 -18
74 -16 20 -40 56 -54 80 l-26 43 -87 2 -88 1 -18 55 c-10 30 -16 57 -13 61 2
4 33 24 68 45 71 43 73 46 72 149 l-1 70 -60 32 c-33 17 -64 38 -68 45 -5 8 0
36 13 72 l22 58 66 -7 c36 -4 71 -9 78 -12 13 -5 104 127 104 151 0 7 -11 40
-25 74 -14 34 -25 66 -25 71 0 11 105 91 120 91 6 0 38 -20 72 -45 34 -25 66
-45 70 -45 5 0 23 8 41 17 18 9 50 22 71 28 37 11 40 15 56 73 9 34 23 68 30
77 16 19 142 21 158 3z m-1305 -39 c12 -7 49 -35 82 -63 33 -29 77 -65 97 -80
21 -15 36 -33 35 -38 -1 -6 4 -13 12 -16 9 -3 11 0 6 9 -5 8 -4 10 0 6 13 -11
15 -37 3 -37 -6 0 -26 11 -44 25 -18 14 -36 25 -41 25 -4 0 -1 -5 7 -10 13 -8
12 -10 -3 -10 -10 0 -15 -4 -12 -10 18 -29 -22 -2 -89 61 -41 39 -87 80 -101
91 -31 24 -32 36 -2 48 29 12 25 12 50 -1z m2521 -2 c17 -12 14 -47 -4 -47 -5
0 -53 -40 -107 -89 -86 -77 -101 -87 -116 -76 -9 7 -17 16 -17 22 0 15 196
203 212 203 8 0 22 -6 32 -13z m-2573 -102 c19 -14 66 -58 105 -98 39 -40 85
-85 104 -100 24 -20 30 -31 22 -39 -8 -8 -21 -4 -47 16 -20 15 -42 25 -50 22
-9 -3 -50 26 -103 72 -49 42 -101 86 -118 98 -25 18 -27 23 -15 38 20 23 62
20 102 -9z m2660 9 c12 -14 5 -24 -51 -76 -106 -96 -165 -139 -184 -132 -10 4
-25 -1 -35 -10 -13 -12 -20 -13 -23 -6 -4 12 176 193 222 223 31 21 54 21 71
1z m-2768 -86 c12 -6 49 -35 81 -65 105 -97 150 -163 112 -163 -19 0 -117 69
-211 149 -59 51 -73 67 -64 77 14 17 53 18 82 2z m2366 -5 c-8 -10 -20 -24
-27 -32 -7 -7 -11 -20 -8 -27 3 -8 1 -14 -5 -14 -25 0 -18 31 13 59 37 34 47
39 27 14z m488 0 c5 -12 -13 -34 -66 -82 -69 -62 -252 -193 -260 -186 -5 6 19
37 94 120 127 141 214 196 232 148z m90 -89 c3 -10 -112 -117 -180 -169 -38
-28 -97 -44 -97 -25 0 17 169 187 202 203 31 15 69 10 75 -9z m-2991 -23 c27
-21 73 -66 102 -100 44 -51 51 -63 40 -75 -18 -19 -66 7 -138 74 -30 29 -70
65 -89 80 -40 34 -37 60 7 60 19 0 47 -14 78 -39z m-29 -145 c100 -98 116
-126 75 -126 -21 0 -58 26 -149 105 -37 33 -79 67 -93 76 -21 14 -23 18 -11
33 7 9 27 16 43 16 25 0 49 -19 135 -104z m3112 90 c9 -11 -4 -26 -66 -78 -43
-35 -101 -81 -129 -101 l-52 -37 -5 26 c-4 21 6 37 50 84 92 99 173 142 202
106z m-3279 -96 c27 -20 91 -86 132 -137 26 -32 28 -73 4 -73 -6 0 -47 32 -91
71 -44 39 -97 82 -117 96 -44 30 -46 36 -16 57 25 17 49 13 88 -14z m3375 10
c4 -6 -4 -19 -17 -30 -84 -71 -172 -142 -210 -167 -46 -32 -75 -34 -59 -4 19
34 87 110 144 160 49 43 65 51 97 51 21 0 42 -5 45 -10z m-3434 -124 c61 -46
111 -111 107 -139 -10 -71 -178 77 -178 156 0 26 23 20 71 -17z m3459 19 c0
-63 -130 -191 -181 -178 -10 3 -19 8 -19 12 1 14 103 136 132 158 37 26 68 30
68 8z m-4397 -51 c37 -74 98 -146 158 -184 51 -34 67 -57 44 -67 -56 -21 -207
136 -251 260 -17 49 -18 47 4 47 12 0 27 -19 45 -56z m5311 29 c-14 -57 -61
-139 -111 -193 -61 -67 -136 -111 -154 -93 -16 16 -1 34 56 67 60 35 116 103
151 180 20 45 35 66 47 66 14 0 16 -5 11 -27z m-4121 -635 c134 -118 131 -114
76 -142 -30 -14 -58 -86 -58 -148 l-1 -47 -57 -11 c-32 -7 -73 -16 -92 -21
-19 -5 -37 -7 -39 -5 -2 2 4 19 13 37 16 29 16 33 1 41 -31 17 -16 28 39 28
44 0 57 4 61 18 19 56 28 71 47 74 37 5 30 32 -25 92 l-53 59 -70 -24 -69 -24
-16 -65 c-13 -53 -20 -66 -38 -68 -12 -2 -22 -5 -22 -8 0 -2 20 -29 45 -60 25
-30 45 -62 45 -72 0 -11 -6 -7 -19 13 -10 17 -41 52 -70 78 l-51 48 26 82 c38
119 42 127 61 127 10 1 50 14 88 29 39 16 78 29 88 30 10 1 50 -27 90 -61z
m2999 42 c25 -11 69 -26 99 -33 51 -14 54 -16 61 -53 3 -22 14 -59 23 -84 30
-81 30 -80 2 -80 -14 0 -29 5 -32 10 -12 19 -33 10 -44 -19 -7 -15 -30 -45
-51 -66 -35 -34 -42 -37 -75 -31 -25 5 -35 4 -30 -3 3 -6 16 -11 29 -11 22 0
46 -17 46 -33 0 -10 -63 -2 -136 19 -48 13 -52 17 -69 61 -10 27 -31 76 -47
111 -25 54 -28 65 -16 79 29 35 169 153 182 153 7 0 34 -9 58 -20z m-1697
-526 c29 -12 65 -14 159 -11 66 2 130 6 141 10 16 5 27 -3 53 -39 47 -65 48
-69 6 -95 -36 -22 -45 -23 -202 -20 -106 2 -162 -1 -158 -7 3 -6 1 -12 -6 -14
-9 -3 -8 -10 5 -22 11 -11 17 -30 15 -52 -2 -33 26 -69 44 -57 5 2 15 -2 23
-10 9 -10 36 -15 79 -15 36 0 70 -3 76 -7 6 -4 18 -1 26 6 22 18 28 4 9 -25
-22 -34 -110 -61 -169 -52 -64 10 -100 37 -114 85 -14 45 -16 46 -52 26 -51
-29 -60 -22 -59 53 l1 67 15 -35 c10 -23 11 -36 4 -38 -7 -2 -6 -8 3 -17 15
-15 59 -9 50 7 -4 6 -1 13 5 17 10 6 18 32 23 70 2 18 -4 28 -17 28 -18 0 -95
34 -95 42 0 6 90 121 95 121 1 0 19 -7 40 -16z"/>
<path d="M3653 2035 c-310 -84 -458 -413 -316 -705 67 -137 191 -230 352 -263
192 -40 425 73 514 250 47 91 60 157 55 270 -4 96 -7 108 -46 187 -86 173
-254 277 -442 275 -36 0 -89 -7 -117 -14z m253 -193 c52 -21 144 -96 144 -118
0 -7 4 -14 8 -14 5 0 19 -24 31 -52 33 -75 26 -198 -15 -277 -15 -29 -34 -55
-41 -58 -7 -3 -13 -11 -13 -19 0 -8 -6 -14 -14 -14 -8 0 -16 -6 -19 -13 -3 -7
-29 -26 -58 -41 -79 -41 -194 -48 -280 -16 -65 25 -169 113 -169 144 0 9 -3
16 -8 16 -14 0 -42 98 -42 151 0 92 33 170 100 240 25 25 56 50 70 54 14 4 28
12 31 17 20 30 198 30 275 0z"/>
<path d="M5214 1013 c-27 -37 -47 -72 -45 -77 2 -6 11 -36 19 -66 9 -30 17
-56 18 -58 1 -2 17 -5 35 -7 22 -3 29 -1 20 4 -29 18 -4 38 51 39 48 2 56 5
85 39 42 49 46 63 33 112 -9 36 -15 42 -53 51 -23 6 -52 15 -65 20 -39 17 -47
12 -98 -57z"/>
<path d="M3000 884 c-19 -7 -52 -13 -73 -13 -21 -1 -47 -5 -57 -11 -10 -5 -44
-13 -76 -16 -33 -4 -66 -13 -75 -21 -10 -8 -20 -38 -24 -70 -4 -31 -10 -63
-15 -72 -7 -15 -21 -73 -39 -169 -7 -40 -6 -46 18 -68 14 -13 29 -24 33 -24 3
0 13 -6 20 -12 7 -7 40 -31 73 -53 33 -22 62 -43 63 -47 2 -5 8 -8 13 -8 5 0
29 -16 54 -35 31 -23 51 -32 63 -27 17 7 242 116 272 131 12 7 16 37 18 161
l3 153 -40 36 c-21 20 -52 47 -68 60 -15 14 -50 46 -78 71 -49 45 -51 46 -85
34z m39 -144 c24 -22 63 -52 88 -66 33 -20 42 -31 37 -43 -4 -9 -10 -52 -13
-96 l-6 -80 -70 -35 c-38 -19 -77 -44 -86 -55 -17 -20 -18 -20 -51 11 -18 16
-52 42 -75 57 -23 14 -57 40 -77 57 l-35 31 20 57 c11 31 23 82 27 112 l7 55
65 7 c51 6 122 21 125 27 1 1 20 -17 44 -39z"/>
<path d="M2896 635 c-9 -13 -16 -42 -16 -64 0 -66 54 -96 129 -70 58 21 69 83
22 130 -24 23 -38 29 -74 29 -36 0 -48 -5 -61 -25z"/>
<path d="M4399 818 c-41 -40 -90 -85 -108 -100 l-34 -27 6 -143 c3 -79 9 -151
12 -160 7 -16 101 -68 124 -68 6 0 11 -4 11 -10 0 -5 5 -10 11 -10 13 0 101
-41 109 -51 3 -4 15 -9 27 -13 17 -5 37 3 84 36 34 24 69 48 78 53 9 6 32 22
52 38 20 15 42 27 48 27 6 0 11 4 11 9 0 5 16 19 35 32 40 28 43 46 19 134
-18 65 -26 100 -46 185 -22 91 -7 84 -248 120 -36 5 -77 12 -91 15 -21 5 -37
-6 -100 -67z m291 -68 l35 0 28 -115 c22 -89 26 -118 17 -134 -6 -12 -47 -46
-90 -77 -44 -30 -82 -59 -85 -64 -3 -5 -51 13 -108 39 l-102 48 -6 84 c-4 46
-10 91 -14 101 -5 12 8 26 54 58 34 22 68 51 76 64 15 22 16 22 87 10 40 -7
89 -13 108 -14z"/>
<path d="M4501 646 c-6 -7 -8 -15 -6 -18 3 -3 1 -17 -6 -31 -16 -36 -4 -74 31
-92 39 -20 69 -19 108 5 30 19 33 24 30 62 -2 30 -10 46 -28 60 -32 24 -114
33 -129 14z"/>
</g>
</svg>
